<?xml version="1.0" encoding="utf-8"?>
<!-- Generator: Adobe Illustrator 24.2.1, SVG Export Plug-In . SVG Version: 6.00 Build 0)  -->
<svg version="1.1" id="Layer_1" xmlns="http://www.w3.org/2000/svg" xmlns:xlink="http://www.w3.org/1999/xlink" x="0px" y="0px"
	 viewBox="0 0 225 225" style="enable-background:new 0 0 225 225;" xml:space="preserve">
<style type="text/css">
	.st0{fill:#7E7E7E;}
</style>
<g id="Layer_2_1_">
	<g id="Layer_1-2">
		<path class="st0" d="M126.7,112.8c-0.5,35-27.1,61.3-61.4,61.6c-34,0.2-63-26.8-61.8-64.1c1.1-32.6,26.2-59.3,61.4-59.6
			C98.8,50.4,126.4,76.6,126.7,112.8z"/>
		<path class="st0" d="M195.1,109.4c-0.1,18.9-2.7,34.2-11.3,48c-4.1,6.6-9.2,12-17.4,13.4c-5.6,1-10.4-0.6-14.6-4.1
			c-9.8-7.9-14.2-18.9-16.9-30.7c-5.1-22.6-3.9-44.7,6.8-65.6c3.8-7.4,9.1-13.8,17.8-16.2s15.2,1.9,20.4,7.9
			c7.9,9,11.5,20.3,13.6,31.9C194.3,99.2,194.8,104.3,195.1,109.4z"/>
		<path class="st0" d="M222.9,112.7c-1.8,13.5-3.4,27.1-5.4,40.6c-0.5,3.1-2.1,6.2-3.7,9.1c-2.1,3.9-5.1,4-6.6-0.1
			c-2.4-6.4-5-13-5.7-19.7c-1.6-13.6-2.2-27.4-2-41.1c0.4-12.7,1.1-25.8,6.9-37.6c0.8-1.7,2.7-3.6,4.4-3.9c1.1-0.2,3.3,2.3,3.8,3.9
			c2.3,8,4.7,16.1,6,24.3c1.2,8,1.1,16.2,1.5,24.3L222.9,112.7z"/>
	</g>
</g>
</svg>
